<svg xmlns="http://www.w3.org/2000/svg" viewBox="0 0 422 404.47"><defs><style>.cls-1{fill:#595657;}.cls-2{opacity:0.2;}</style></defs><g id="Camada_2" data-name="Camada 2"><g id="Camada_1-2" data-name="Camada 1"><path class="cls-1" d="M375.41,298.51s-22.44-5.44-2-21.31-7.93-18.81-1.58-33.54,10.65-17,2-32.64-13.6-82.5-118.66-78.76-132.93,84.65-98.25,149.93c0,0,23.8,35.69,76.83,35.69,0,0,13.6,2.38,18.93-4.41s9.63-21.31,9.63-21.31c1.36.45,20.4,26.74,20.4,26.74s2.72,10,0,24,11.79,19.95,11.79,19.95,21.76-3.18,34,8.15,39.43,11.79,45.33,6.8-7.26-18.13,0-25.83c0,0-25.84.9-37.63-8.16s-17.35-4.54-17.35-4.54-28-10,2.85-44c0,0-9.52,28.56-.46,34.45l54.15,10.43s5.69-16.77-3.38-30.82Zm-69.35-1.14c-14.51,11.34-24,11.79-28.33-3.17s-3.21-17.11,0-16.32L310.59,286S320.56,286,306.06,297.37Zm55.07-60.06c-3.62,6.8-10.42,14.05-3.17,29.92s-15.19,23.12-28.1,3.85,20.39-40.57,20.39-40.57C362.49,224.62,364.76,230.51,361.13,237.31Z"/><path class="cls-1" d="M318.32,400.77c0-.61,2.69-2.87,5.27-3.73,11.67-3.92,24.74.7,36.6.89,15.44.24,33.9-6.11,32.28-24.68-.35-4-2.61-7.56-3-11.4-.4-4.53,2.48-5.18,5.8-7.41,6.12-4.1,7-8.48,5.74-15.46-1-5.24-.09-5,2.87-8.38,1.75-2,2.69-3.85,2.44-6.61-.4-4.39-4.05-7.43-6.19-11-2.88-4.77,1.2-4.9,5.29-6.25,6.44-2.12,13.49-4.57,15.85-11.63,2.86-8.53-3.86-15.79-9.26-21.51-4.22-4.46-8.55-8.72-11.68-14.06-3.23-5.5-9.41-15.06-8.24-21.63.65-3.68,5.32-6.34,6.56-10.31,6-19-4.35-44.89-13.65-61-22.14-38.34-63.45-55.82-106.25-58.3-4.92-.28-4.91,7.37,0,7.65,39.05,2.26,77.06,17.64,98.18,52.05a106,106,0,0,1,13.75,35.2c1.31,6.76,3.12,16.3.39,23-.55,1.34.22,0-.77,1-3,3.08-5.3,5.05-5.87,9.63-1.18,9.59,6,21.92,11.08,29.45,4.33,6.36,20.62,17.52,18.67,26-1.64,7.11-13.87,6.9-19,10.34-5.44,3.66-4.9,9.17-1.68,14.24,1.14,1.8,4.43,4.31,4.57,6.53.15,2.4.41.72-.62,2.62-1.28,2.38-3.77,3.35-4.57,6.37-1,3.79,1.09,6.71,1.21,10.34.13,4.38-3,5-6.15,7.17-5.08,3.53-7.28,8-5.85,14.23,2.13,9.3,5.58,18.11-5.33,23.39-12.81,6.19-28,.76-41.45.56-7.75-.11-24.78,1.35-24.72,12.67,0,4.92,7.68,4.93,7.65,0Z"/><g class="cls-2"><path class="cls-1" d="M287.72,312,272,288.57l-7.23-37.4L329,216.75l19.56-9.35,5,6.21a178.66,178.66,0,1,0-66,106.17Z"/></g></g></g></svg>