<svg width="54" height="54" viewBox="0 0 54 54" fill="none" xmlns="http://www.w3.org/2000/svg">
<rect width="54" height="54" fill="#E5E5E5"/>
<rect width="1440" height="791" transform="translate(-209 -542)" fill="#0A0A0A"/>
<rect width="54" height="54" rx="12" fill="#C4C4C4" fill-opacity="0.1"/>
<path d="M44.9761 26.6354C44.9761 16.5577 36.7012 8.39258 26.4881 8.39258C16.2749 8.39258 8 16.5577 8 26.6354C8 35.7407 14.7608 43.2879 23.5993 44.6576V31.9089H18.9027V26.6354H23.5993V22.6161C23.5993 18.0444 26.3576 15.5191 30.5823 15.5191C32.6055 15.5191 34.7212 15.8751 34.7212 15.8751V20.3622H32.3893C30.0932 20.3622 29.3768 21.7687 29.3768 23.2112V26.6354H34.5043L33.6842 31.9089H29.3768V44.6576C38.2153 43.2879 44.9761 35.7407 44.9761 26.6354Z" fill="white"/>
<rect x="-87" y="-4219" width="1196" height="4770" stroke="#428999" stroke-opacity="0.6" stroke-width="2"/>
</svg>
