<svg width="54" height="54" viewBox="0 0 54 54" fill="none" xmlns="http://www.w3.org/2000/svg">
<rect width="54" height="54" fill="#E5E5E5"/>
<rect width="1440" height="791" transform="translate(-349 -470)" fill="#0A0A0A"/>
<rect width="54" height="54" rx="12" fill="#C4C4C4" fill-opacity="0.1"/>
<path d="M26.7141 18.7953C21.9722 18.7953 18.1473 22.4581 18.1473 26.9993C18.1473 31.5404 21.9722 35.2033 26.7141 35.2033C31.456 35.2033 35.2808 31.5404 35.2808 26.9993C35.2808 22.4581 31.456 18.7953 26.7141 18.7953ZM26.7141 32.333C23.6497 32.333 21.1446 29.941 21.1446 26.9993C21.1446 24.0575 23.6423 21.6656 26.7141 21.6656C29.7859 21.6656 32.2836 24.0575 32.2836 26.9993C32.2836 29.941 29.7784 32.333 26.7141 32.333ZM37.6294 18.4597C37.6294 19.5235 36.7347 20.3732 35.6312 20.3732C34.5203 20.3732 33.6331 19.5164 33.6331 18.4597C33.6331 17.4029 34.5278 16.5461 35.6312 16.5461C36.7347 16.5461 37.6294 17.4029 37.6294 18.4597ZM43.3033 20.4018C43.1765 17.8385 42.5652 15.5679 40.6043 13.6972C38.6509 11.8265 36.2799 11.241 33.6033 11.1125C30.8446 10.9625 22.5761 10.9625 19.8175 11.1125C17.1483 11.2338 14.7773 11.8193 12.8164 13.69C10.8556 15.5608 10.2516 17.8313 10.1174 20.3946C9.96086 23.0365 9.96086 30.9549 10.1174 33.5968C10.2442 36.1601 10.8556 38.4306 12.8164 40.3014C14.7773 42.1721 17.1408 42.7576 19.8175 42.8861C22.5761 43.036 30.8446 43.036 33.6033 42.8861C36.2799 42.7647 38.6509 42.1792 40.6043 40.3014C42.5577 38.4306 43.1691 36.1601 43.3033 33.5968C43.4599 30.9549 43.4599 23.0436 43.3033 20.4018ZM39.7394 36.4314C39.1579 37.8309 38.032 38.909 36.5632 39.4731C34.3638 40.3085 29.1447 40.1157 26.7141 40.1157C24.2835 40.1157 19.057 40.3014 16.8649 39.4731C15.4036 38.9162 14.2778 37.838 13.6888 36.4314C12.8164 34.3251 13.0177 29.327 13.0177 26.9993C13.0177 24.6716 12.8239 19.6663 13.6888 17.5671C14.2703 16.1677 15.3961 15.0895 16.8649 14.5254C19.0644 13.69 24.2835 13.8828 26.7141 13.8828C29.1447 13.8828 34.3712 13.6972 36.5632 14.5254C38.0246 15.0824 39.1504 16.1605 39.7394 17.5671C40.6117 19.6735 40.4104 24.6716 40.4104 26.9993C40.4104 29.327 40.6117 34.3322 39.7394 36.4314Z" fill="white"/>
<rect x="-227" y="-4147" width="1196" height="4770" stroke="#428999" stroke-opacity="0.6" stroke-width="2"/>
</svg>
