<svg width="54" height="54" viewBox="0 0 54 54" fill="none" xmlns="http://www.w3.org/2000/svg">
<rect width="54" height="54" fill="#E5E5E5"/>
<rect width="1440" height="791" transform="translate(-295 -542)" fill="#0A0A0A"/>
<rect width="54" height="54" rx="12" fill="#C4C4C4" fill-opacity="0.1"/>
<path d="M38.4151 15.4574C35.2893 12.4575 31.1267 10.8076 26.7029 10.8076C17.5719 10.8076 10.1417 17.9216 10.1417 26.664C10.1417 29.4568 10.9027 32.1852 12.3499 34.5923L10 42.8062L18.7804 40.5991C21.1974 41.8634 23.9203 42.5276 26.6954 42.5276H26.7029C35.8265 42.5276 43.4207 35.4137 43.4207 26.6712C43.4207 22.4357 41.5408 18.4573 38.4151 15.4574ZM26.7029 39.8563C24.2262 39.8563 21.8017 39.2206 19.6905 38.0207L19.1907 37.735L13.9836 39.0421L15.3712 34.178L15.0429 33.678C13.6629 31.5781 12.9392 29.1568 12.9392 26.664C12.9392 19.4001 19.1161 13.4861 26.7104 13.4861C30.3881 13.4861 33.8421 14.8574 36.4382 17.3502C39.0342 19.8429 40.6307 23.1499 40.6232 26.6712C40.6232 33.9423 34.2897 39.8563 26.7029 39.8563ZM34.2524 29.9853C33.8421 29.7853 31.8055 28.8282 31.4251 28.6997C31.0446 28.564 30.7686 28.4997 30.4926 28.8997C30.2165 29.2996 29.4258 30.1853 29.1796 30.4567C28.9409 30.721 28.6947 30.7567 28.2844 30.5567C25.8525 29.3925 24.256 28.4782 22.6521 25.8427C22.2269 25.1427 23.0773 25.1927 23.8681 23.6785C24.0024 23.4142 23.9352 23.1856 23.8308 22.9856C23.7264 22.7856 22.8983 20.8357 22.5551 20.0429C22.2194 19.2715 21.8763 19.3787 21.6227 19.3644C21.3839 19.3501 21.1079 19.3501 20.8319 19.3501C20.5559 19.3501 20.1083 19.4501 19.7278 19.8429C19.3474 20.2429 18.2806 21.2 18.2806 23.1499C18.2806 25.0998 19.7651 26.9855 19.9665 27.2497C20.1754 27.514 22.8834 31.5138 27.0386 33.2352C29.6645 34.3208 30.694 34.4137 32.0069 34.228C32.8052 34.1137 34.4538 33.2709 34.797 32.3424C35.1401 31.4138 35.1401 30.621 35.0357 30.4567C34.9387 30.2782 34.6627 30.1782 34.2524 29.9853Z" fill="white"/>
<rect x="-173" y="-4219" width="1196" height="4770" stroke="#428999" stroke-opacity="0.6" stroke-width="2"/>
</svg>
